<?xml version="1.0" encoding="UTF-8" standalone="no"?>
<svg
        viewBox="0 0 34.846135 35.08002"
        version="1.1"
        id="svg68"
        sodipodi:docname="COD_Logo.svg"
        width="34.846134"
        height="35.080021"
        inkscape:version="1.2.2 (b0a8486541, 2022-12-01)"
        xmlns:inkscape="http://www.inkscape.org/namespaces/inkscape"
        xmlns:sodipodi="http://sodipodi.sourceforge.net/DTD/sodipodi-0.dtd"
        xmlns="http://www.w3.org/2000/svg"
>
  <defs
          id="defs62">
    <style
            id="style60">.cod-logo{fill:#43B02A}
    </style>
  </defs>
  <path
          class="cod-logo"
          d="M 8.7130518,17.39 22.273052,4.58 17.453052,0 3.7630518,13 a 13,13 0 0 0 -3.74999998,9.73 c 0,2.72 1.93999998,8.78 7.24999998,11.27 l 5.5700002,-5.58 a 6.23,6.23 0 0 1 -6.3100002,-6.05 6.67,6.67 0 0 1 2.19,-4.98 z"
          id="path64"/>
  <path
          class="cod-logo"
          d="m 21.203052,12.71 4.81,-4.6 5,4.74 a 12.65,12.65 0 0 1 3.83,9.23 12.72,12.72 0 0 1 -12.74,13 h -7.89 l -0.11,-15.52 6.45,-6.25 0.13,14.89 h 2.12 a 5.59,5.59 0 0 0 5.44,-5.86 6,6 0 0 0 -1.8,-4.63 z"
          id="path66"/>
</svg>
