<?xml version="1.0" encoding="UTF-8" standalone="no"?>
<svg
   width="310"
   height="310"
   preserveAspectRatio="xMidYMid"
   viewBox="0 0 309.99999 310"
   version="1.1"
   id="svg702"
   sodipodi:docname="MerckColor.svg"
   inkscape:version="1.2.2 (b0a8486541, 2022-12-01)"
   inkscape:export-filename="Merck_Square.png"
   inkscape:export-xdpi="317.10968"
   inkscape:export-ydpi="317.10968"
   xmlns:inkscape="http://www.inkscape.org/namespaces/inkscape"
   xmlns:sodipodi="http://sodipodi.sourceforge.net/DTD/sodipodi-0.dtd"
   xmlns="http://www.w3.org/2000/svg"
   xmlns:svg="http://www.w3.org/2000/svg">
  <defs
     id="defs706" />
  <sodipodi:namedview
     id="namedview704"
     pagecolor="#ffffff"
     bordercolor="#000000"
     borderopacity="0.25"
     inkscape:showpageshadow="2"
     inkscape:pageopacity="0.0"
     inkscape:pagecheckerboard="0"
     inkscape:deskcolor="#d1d1d1"
     showgrid="false"
     inkscape:zoom="1.3885489"
     inkscape:cx="239.45862"
     inkscape:cy="160.23923"
     inkscape:window-width="1920"
     inkscape:window-height="1012"
     inkscape:window-x="1080"
     inkscape:window-y="806"
     inkscape:window-maximized="1"
     inkscape:current-layer="g700" />
  <g
     transform="matrix(18.933406,0,0,18.933406,-1262.5725,-2958.7124)"
     id="g700">
    <path
       d="m 70.778106,160.363 c 0,-2.26077 1.832811,-4.09321 4.093207,-4.09321 2.261123,0 4.093204,1.83244 4.093204,4.09321 z m 0,8.18603 c 0,-2.26038 1.832811,-4.0932 4.093207,-4.0932 -2.260396,0 -4.093207,-1.83207 -4.093207,-4.09283 -2.260393,0 -4.092841,1.83243 -4.092841,4.09283 0,2.26113 1.832448,4.0932 4.092841,4.0932 m 0,0 c 0,2.26113 1.832811,4.09321 4.093207,4.09321 2.261123,0 4.093204,-1.83208 4.093204,-4.09321 z m 4.093207,-4.0932 c 2.261123,0 4.093204,1.83282 4.093204,4.0932 2.260759,0 4.093571,-1.83207 4.093571,-4.0932 0,-2.2604 -1.832812,-4.09283 -4.093571,-4.09283 0,2.26076 -1.832081,4.09283 -4.093204,4.09283"
       style="fill:#007a73;fill-opacity:1;fill-rule:nonzero;stroke:none;stroke-width:0.364522"
       id="path698" />
  </g>
</svg>
